<svg height="552" viewBox="0 0 1550 552" width="1550" xmlns="http://www.w3.org/2000/svg" xmlns:xlink="http://www.w3.org/1999/xlink"><defs><path id="a" d="m370.555487.22871669c8.776285-1.22712099 13.442952 2.48361125 14 11.13219671l28 16.4542397 27.25 6.7294535 28.25 15.3163068c14.328585 4.9743904 24.995251 8.2794033 32 9.9150388 13.052088 3.0477126 16.210603-15.7028164 25-20.6093649 15.860384-8.8538205 32.705312-7.3205614 36 2.5792228.230773.6934194 7.760004 15.5512399 24 23.6497164 12.037476 6.002786 31.347115 4.1373168 42.973684 11.8331902 38.209619 25.2917593 68.081946 54.8224853 68.026316 57.0472353-.238566 9.540594 80.116854 103.112203 28 109-19.315089 2.182084-91.815089-23.728365-217.5-77.731345l-278 65.75-95-54.25c-104.5523245-94.956448-147.7189911-148.9927413-129.50000022-162.1088801 11.27991802-8.12059088 55.51188822 20.4179274 81.50000002 20.4845134 19.9011812.0509903 45.0270872-4.945855 67.0000002-4.1915236 32.953118 1.1312825 71.522201-6.0558451 99-3.4135636 15.749154 1.5144481 43.967196 12.3673114 61 7.6050872 26.948067-7.5344456 42.025956-32.95799508 58-35.19152361z"/><path id="b" d="m46.25 153.31589c22.9305737-7.714302 38.2639071-13.887186 46-18.518654 3.4008257-2.036017 5.5257595-9.75 13.5-16.25 7.974241-6.5 8.182798 1.799655 12.25 0 3.839472-1.698889 7.589472-5.532223 11.25-11.5 9.86442-19.2415881 16.447754-33.5629198 19.75-42.9639953 2.887977-8.2217017 4.852877-19.0534034 12.25-36.3046595.707394-1.6497542 2.874094-4.8522113 6.500099-9.6073713l9.749901-14.12397435c4.108178-2.42631241 7.108178-3.75964574 9-4s4.058489.4365588 6.5 2.03073919l6.5 9.96926086 8-2.73134572 25.5 33.23134572 18 24.5849611 18.5 9.1836932 36.75 14 28.25 15.3163071c14.328585 4.97439 24.995251 8.279403 32 9.915039 13.052089 3.047712 16.210603-15.7028169 25-20.6093654 15.860384-8.8538205 32.705312-7.3205614 36 2.5792228.963981 2.8965426 135.095395 88.7151416 135 92.5301426-.238565 9.540593 80.116854 103.112202 28 109-19.315089 2.182083-91.815089-23.728365-217.5-77.731346l-278 65.75-95-54.25z"/><path id="c" d="m11.1991653 52.375c4-.5 8-42 24-34s-35.1991653-5.5-35.1991653-6 63.1991653 3 71.4491653 4c3.1526412.3821383 18.834007 2.9321289 29.0508347 2 5.071422-.4626895 11.637811-2.4626895 19.699165-6 12-11 20.25-14.66666667 24.75-11 6.75 5.5 18 9 27.75 17 6.5 5.3333333 17.694539 4.6666667 33.583616-2l28.873743-15c17.062774 6.125 27.335574 11.7916667 30.818401 17 .316424.4731911 26.607399 11.2582774 41.025075 13.125 16.481045 2.1338764 49.062676-14.8588908 71.5-13 52.975135 4.388892 98.864624 27.0161017 98.502158 30-1.574388 12.9002367-217.600196 12.6947361-218.719377 15.875-1.583616 4.5-180.0836157 40.75-186.8336157 40.75s-64.24999996-52.25-60.25-52.75z"/><rect id="d" height="17.5" rx="6.5" width="175" x="1099.3689" y="17.109365"/><filter id="e" height="1168.6%" width="206.9%" x="-53.4%" y="-528.6%"><feOffset dx="0" dy="1" in="SourceAlpha" result="shadowOffsetOuter1"/><feGaussianBlur in="shadowOffsetOuter1" result="shadowBlurOuter1" stdDeviation="31"/><feColorMatrix in="shadowBlurOuter1" type="matrix" values="0 0 0 0 0.033654107   0 0 0 0 0.0992590111   0 0 0 0 0.126594388  0 0 0 1 0"/></filter><mask id="f" fill="#fff"><use fill="#fff" fill-rule="evenodd" xlink:href="#a"/></mask><mask id="g" fill="#fff"><use fill="#fff" fill-rule="evenodd" xlink:href="#b"/></mask><mask id="h" fill="#fff"><use fill="#fff" fill-rule="evenodd" xlink:href="#c"/></mask></defs><g fill="none" fill-rule="evenodd"><path d="m0 0h1550v552h-1550z" fill="#04141b"/><path d="m.30418979-42.7734375h1592.69581021v434.6508265l-1593 .122611z" fill="#202778"/><g transform="translate(-333.399749 -43.004257)"><g fill="#19206f"><path d="m1015.49635 230.504257h80.13568c2.6186 0 4.7414 2.1228 4.7414 4.741406 0 2.618607-2.1228 4.741407-4.7414 4.741407h-28.00176c-2.6998 0-4.88842 2.188617-4.88842 4.888414s2.18862 4.888414 4.88842 4.888414h56.73017c3.37902 0 6.11826 2.739237 6.11826 6.118257s-2.73924 6.118256-6.11826 6.118256h-68.99492c-2.35011 0-4.25525 1.905137-4.25525 4.255243s1.90514 4.255244 4.25525 4.255244h91.97017c5.8053 0 10.51143 4.706126 10.51143 10.511427s-4.70613 10.511428-10.51143 10.511428h-87.51779c-4.80909 0-8.70763 3.898535-8.70763 8.707623 0 4.809087 3.89854 8.707623 8.70763 8.707623h130.83819c4.55285 0 8.24366 3.69081 8.24366 8.243654 0 4.552845-3.69081 8.243654-8.24366 8.243654h-295.512687c-4.552845 0-8.243654-3.690809-8.243654-8.243654 0-4.552844 3.690809-8.243654 8.243654-8.243654h105.940977c4.57792 0 8.28905-3.711134 8.28905-8.28905 0-4.577917-3.71113-8.289051-8.28905-8.289051h-95.004958c-4.546577 0-8.232305-3.685728-8.232305-8.232305 0-4.546576 3.685728-8.232305 8.232305-8.232305h84.070679c3.81493 0 6.907542-3.092612 6.907542-6.907542s-3.092612-6.907542-6.907542-6.907542h-34.139331c-3.404092 0-6.163653-2.759561-6.163653-6.163653 0-3.404091 2.759561-6.163653 6.163653-6.163653h77.90839c1.93681 0 3.5069-1.570095 3.5069-3.506906 0-1.93681-1.57009-3.506906-3.5069-3.506906h-18.42281c-3.38159 0-6.12292-2.741322-6.12292-6.122914 0-3.381593 2.74133-6.122915 6.12292-6.122915z"/><path d="m1580.63624 119.004257h186.46584c6.09419 0 11.03451 4.940318 11.03451 11.03451 0 6.094191-4.94032 11.034509-11.03451 11.034509h-65.15464c-6.28315 0-11.37664 5.093494-11.37664 11.376637 0 6.283142 5.09349 11.376636 11.37664 11.376636h132.00298c7.86387 0 14.2388 6.37493 14.2388 14.238805s-6.37493 14.238805-14.2388 14.238805h-160.54233c-5.46932 0-9.90308 4.433759-9.90308 9.903079 0 5.469319 4.43376 9.903079 9.90308 9.903079h214.00246c13.51048 0 24.46288 10.952404 24.46288 24.462878 0 13.510475-10.9524 24.462879-24.46288 24.462879h-203.64059c-11.19202 0-20.26495 9.072926-20.26495 20.264948s9.07293 20.264948 20.26495 20.264948h304.44462c10.59568 0 19.18517 8.589493 19.18517 19.185169s-8.58949 19.185168-19.18517 19.185168h-681.22968c-14.13029 0-25.58515-11.454861-25.58515-25.585147 0-14.130287 11.45486-25.585148 25.58515-25.585148h238.36542c11.61801 0 21.03627-9.418258 21.03627-21.036267 0-11.61801-9.41826-21.036267-21.03627-21.036267h-227.46356c-6.08249 0-11.01333-4.930835-11.01333-11.013328s4.93084-11.013328 11.01333-11.013328h203.76625c8.87836 0 16.07569-7.197328 16.07569-16.075682s-7.19733-16.075682-16.07569-16.075682h-79.43512c-7.92223 0-14.34446-6.422231-14.34446-14.344455 0-7.922223 6.42223-14.344454 14.34446-14.344454h181.28352c4.50747 0 8.1615-3.654028 8.1615-8.1615s-3.65403-8.1615-8.1615-8.1615h-42.86517c-7.86987 0-14.24965-6.379784-14.24965-14.249646s6.37978-14.249646 14.24965-14.249646z"/><path d="m519.636237 76.0042568h186.465844c6.094191 0 11.03451 4.9403183 11.03451 11.0345097 0 6.0941915-4.940319 11.0345097-11.03451 11.0345097h-65.154643c-6.283143 0-11.376637 5.0934938-11.376637 11.3766368 0 6.283142 5.093494 11.376636 11.376637 11.376636h132.002979c7.863875 0 14.238805 6.37493 14.238805 14.238805s-6.37493 14.238805-14.238805 14.238805h-160.542326c-5.46932 0-9.903079 4.433759-9.903079 9.903079 0 5.469319 4.433759 9.903079 9.903079 9.903079h222.002463c9.092197 0 16.462879 7.370682 16.462879 16.462878 0 9.092197-7.370682 16.462879-16.462879 16.462879h-211.640594c-11.192022 0-20.264948 9.072926-20.264948 20.264948s9.072926 20.264948 20.264948 20.264948h208.918304c10.595676 0 19.185169 8.589493 19.185169 19.185169s-8.589493 19.185168-19.185169 19.185168h-593.703368c-9.712009 0-17.585147-7.873139-17.585147-17.585147 0-9.712009 7.873138-17.585148 17.585147-17.585148h246.365428c11.618009 0 21.036267-9.418258 21.036267-21.036267 0-11.61801-9.418258-21.036267-21.036267-21.036267h-227.463563c-6.082493 0-11.013328-4.930835-11.013328-11.013328s4.930835-11.013328 11.013328-11.013328h203.766253c8.878354 0 16.075682-7.197328 16.075682-16.075682s-7.197328-16.075682-16.075682-16.075682h-79.435127c-7.922223 0-14.344454-6.422231-14.344454-14.344455 0-7.922223 6.422231-14.344454 14.344454-14.344454h181.283519c4.507472 0 8.1615-3.654028 8.1615-8.1615s-3.654028-8.1615-8.1615-8.1615h-42.865169c-7.869863 0-14.249646-6.3797839-14.249646-14.2496461s6.379783-14.2496461 14.249646-14.2496461z"/></g><g transform="translate(222.844262 227.77554)"><use fill="#2b349b" xlink:href="#a"/><g fill="#0e0e50"><path d="m373.555487-.72997833c-3.666667-5.73234949-3.666667-2.40791495 0 9.97330362 5.5 18.57182781 4.5 23.23088901 5 31.35814021s13 21.1438774 16 26.9877272c2 3.8958998-14.666667 21.2656938-50 52.1093823-6-23.0000005-11.833334-36.3333338-17.5-40.0000005-8.5-5.5-17-10.030973-17-24.8084763 0-9.8516689 2.833333-19.4255575 8.5-28.7216658z" mask="url(#f)"/><path d="m545.555487 30.3431281c6.819664 4.8314322 9.486331 17.246787 8 37.2460646-1.486331 19.9992775 1.680335 40.2124523 9.5 60.6395243l-17.5 32.908367-48-15.664685-24-10.243682c-7.666667 4.818483-11.5-.848184-11.5-17 0-11.420458 15.001475-24.2108202 29-39.4790558 3.866281-4.2169651 8.199614-11.0572799 13-20.5209445l30.5-40z" mask="url(#f)"/></g></g><g transform="translate(1095.399749 201.957021)"><use fill="#2b349b" xlink:href="#b"/><g fill="#0e0e50"><path d="m178 1.41619709-6.5 33.75000001 13 23.2103175 16.75 21.9448897c4.871283 3.2825191 8.454616 8.1911295 10.75 14.7258313 2.295384 6.5347014 4.045384 16.8094974 5.25 30.8243854l43.5 39.557016c21.889077-28.599154 34.72241-43.667683 38.5-45.205586 1.862268-.758152 9.287737-22.0337575 9.250143-39.6758154-.077229-36.0380258-10.53315-82.2778088-17.750143-85.13103851-3.327327-1.31545474-31.91066 1.39489141-85.75 8.13103846l7 35.50000005c-5-11-8.583333-19.6379922-10.75-25.9139764-4.57429-3.76359492-4.463015-14.37664046-5.5-17.71706211-3.666667-11.81137469-9.583333-9.81137469-17.75 6z" mask="url(#g)"/><path d="m77.5 270.047236 63.861995-150.214499 3.638005-12.535501c.833333-4.288088 3-6.432132 6.5-6.432132 3.224237 0 7.426012-14.4818525 15.600586-37.857551.466103-1.332851 1.682575-2.4862902 3.649414-3.4603174l4.5 14.25-4.5 8.2313456 4.5 7.0849612-11.25 17.4999996-3.375 16.183694c3.92668 8.290223 6.085209 12.790223 6.475586 13.5 1.833333 3.333333 12.549805 5.833333 32.149414 7.5l-15 26.512439c19.002535 33.160815 19.585869 58.073336 1.75 74.737561s-54.002535 24.997558-108.5 25z" mask="url(#g)"/><path d="m397.5 90.0885405c19.666667 28.6391305 29.5 45.6253615 29.5 50.9586955 0 8-23.5 45.425382-23.5 52.462691s95.5-9.341546 95.5-21.652119c0-12.310572 10-136.7462435 0-138.0756435-10-1.3294001-72 15.834817-72 25.049944 0 6.143418-9.833333 16.5622287-29.5 31.256432z" mask="url(#g)"/><path d="m326.5 190.788132c12-17.160597 18-29.407563 18-36.740896 0-11 9.5-17 9.5-28s5.5-18.879185 9-15.997952c3.5 2.881234 3.5 3.111652 3.5 11.304802s14.5 29.19315 14.5 41.19315-18 26.615411-18 41.715859c0 10.066965-12.166667 5.575311-36.5-13.474963z" mask="url(#g)"/></g></g><g transform="translate(714.030845 296.894892)"><path d="m182.868904 8.23469363c2.756868-.33252818-7.156074 23.22588687 0 22.69905707 5.355165-.3942469 9.66122-13.2593848 20-18.8243858 4.339637-2.33587341 13.512187 19.4379333 26 26 13.864827 7.2856565 30.980358-.3286417 32.25 1.75 10.070412 16.4871573 33.683844 29.0615497 33.683844 28.3592971 0-1.2898868 26.421377 12.8128298 43.566156 12.4585715 15.244521-.3149937 21.065197-15.4714874 26.357873-10.9584371 11.245092 9.5886605 23.712307 13.6426117 23.712307 15.3817713 0 .4054046 7.462551 8.2756751 15.9522 8.3063671 27.9304.1009747 84.340247-7.7611892 69.475184 4.5149553-19.383409 16.0075689-17.314859 44.3286509-59.252373 45.5600029-41.937513 1.231351-88.120632-6.567208-107.952886-7.388109s-36.80212-14.365766-37.619945-14.365766-21.67236 13.134415-21.67236 6.567207c0-2.192913-70.787593 43.508671-81.5 25.81414-8.176856-13.506361-137.3217806 3.346862-153.5-16.079365-27-32.420635-1.6231251-86.4979264 0-94.9206351 2.3481531-12.1850194 59.6861324-6.2274983 103.5-12 39.282092-5.1754376 65.551529-22.6999594 67-22.87467127z" fill="#2b349b"/><g transform="translate(155.368904 89.609365)"><use fill="#0e0e50" xlink:href="#c"/><path d="m85.0113587 33.1137477c4.25.5 3.75 9.1836931 20.2500003 0 16.5-9.1836932 18.5-8.0565646 23.75-4.5 5.25 3.5565645 7.25 7.75 18.75 8.75s4.5 4.5 21.25 2.75 28.81896-5.5 39-2.75c10.181039 2.75 36 7.5 37.25 8.25s14.75-.8745481 4.25 5c-10.5 5.874548-89 18.5-104.75 20s-70.0000003-10.057814-72.0000003-12.091633 8-25.908367 12.25-25.408367z" fill="#022140" mask="url(#h)"/></g><path d="m205.140463 173.668058c2.277171-.106325-18.813348-14.459222-63.271559-43.058693 87.945536 4.122462 154.17323 6.02213 198.68308 5.699003 25.425503-.184581 46.100871-.750469 61.973224-.67793 15.509501.07088 27.501102 1.110727 41.260646 1.16262 13.071285.049298 27.995857-.888431 39.487874-.856269 17.899106.050094 77.358889.098901 91.012944.106269 46.856655-.955795 54.221497-2.343012 22.094527-4.16165-19.085086-.953893-9.714461-1.377908 28.111876-1.272043 37.826336.105864 94.492551.714696 169.998644 1.826495 52.4894-.386868 83.396114 2.023865 92.720144 7.232198 13.986044 7.8125-16.353412 41.5-20.592978 46s-482.109773 40.75-500.180495 40.75-172.006503-52.25-161.297927-52.75z" fill="#1796c0" transform="matrix(-1 0 0 1 1032.737808 0)"/><path d="m347.93583 143.609365c36.133851 4.5 26.765816 0 101.040955 0s95.018646-4 126.46848 1c31.449833 5 113.085572 3.5 141.858824 3.5s137.174806 17.5 152.56515 17.5 74.944285 13 0 19.75c-74.944284 6.75-248.922087 13.5-294.423974 6.75-30.334592-4.5-106.17107-17.25-227.509435-38.25-24.089235-9.833333-24.089235-13.25 0-10.25z" fill="#066687"/><use fill="#000" filter="url(#e)" xlink:href="#d"/><use fill="#103849" fill-rule="evenodd" xlink:href="#d"/><path d="m250.870763 96.6093649c-5.385016 18.1736241-19.841267 35.5404881-21.344524 38.0000001-2 3.272245-21.719111 1.855578-59.157335-4.25-11-28.341627-16.5-43.29996-16.5-44.8750001 0-2.3625601 19-26.875 19-31.875s2-86-5-39 43 13.8641006 47 13.9320503.25 7.5679497 5 8.5679497.163796 20.6253287 3 20.6253287c.827808 0 8.790689 23.2646415 17.856755 33.3746713 8.066537 8.9954051 10.951925 2.7770977 10.145104 5.5z" fill="#0e0e50"/></g><path d="m1931.89975.00034935c63.20263.34621723 123.1193 91.59868455 179.75 273.75740165 45.97823 113.213135 59.22823 184.628637 39.75 214.246506-30.12428 45.805841-103.72045 138.613877-238 149-96.91595 7.49616-254.93402 7.832025-269 15-9.9852 5.088421-32.03232 8.004106-59.99399 8.089297l-.00601 57.410703h-709.500001l.000957-46.751146c-69.407992 8.470286-153.221852 14.681272-183.500957-.748854-34.52775-17.595221-612.4647868-82.953702-682.00000046-162.47512-31.38775844-35.895469 28.28831096-147.735212 0-198.52488-2.83562037-5.091157 10.49771296-16.800881 39.99999996-35.129173 39.0562622-144.896681 98.8895955-217.5202904 179.5000005-217.8708272 31.369094-.1364094 76.91482-42.0869334 104.5-13 11.923099 12.5722 19.178589 43.1236499 26.509156 74.4404592l.453575 1.937948c.075625.323104.151269.646251.226937.969423l.857899 3.658595.217403.924538.435621 1.847922c.072703.307826.145459.615561.218272.923188l.437605 1.844338c6.064044 25.491832 12.585293 50.015787 22.143532 64.208371 10.894364 16.176535 23.465606 18.073764 45 43.259826 1.578754 1.84647 3.976094 5.976479 7.192018 12.390027l.406254.813587c2.805203 5.640782 6.207645 12.947636 10.207328 21.920561l59.6944-.259583c20.333333 0 34.808375-1.459733 43.425125-4.3792 15.612686-5.289781 32.784147 5.099936 42.074875 6.370827 12.968955 1.774041 28.527691 24.303106 38.5 26.129173 46.010967 8.42524 58.130186 43.624478 65 43.158436 10.563935-.716646 18.489585-17.299931 24-35.681097 6.740638-22.484843 100.576158 13.753068 110 12.021577 1.923328-.353383 5.569264-9.223473 11-9.680698 2.956544-.248917 6.248084.42807 9.424553 1.044734l.594129.114677c5.629332 1.07814 10.80431 1.769312 12.981318-3.50029 2.898538-7.016119 18.252826-11.401138 21.5-11.274775 6.87806.26766 12.453429 7.261644 16.726106 20.981953 10.647786 3.222615 18.488795 9.344217 23.523894 18.365436-5.085639 2.754721-11.50338 4.341983-19.253222 4.761784l-.274556-.437189c2.080876 3.316474 3.891124 6.102956 5.529816 8.485241 2.20021-.858939 4.616563-1.645422 7.247962-2.359789 1.944743 1.983638 2.999953 4.058044 3.165631 6.22322 10.33903-12.878272 22.200997-24.45248 35.584369-34.72322-.770448 28.699172-4.48411 53.51528-11.140987 74.448323.19381.500871.399034 1.018852.613209 1.551677l.011212.027926c11.811048-8.051137 24.649903-12.393779 38.516566-13.027926.060148 3.368296-.609595 6.940094-2.009229 10.715392 24.62903-.430671 50.64866 1.695731 78.25923 5.284608 4.92465.640116 10.03456 3.840187 15.19845 7.122159l1.14837.729669c5.55422 3.52351 11.1595 6.929743 16.65318 7.148172 3.52028.139966 7.86774-2.91497 12.37922-6.307834l.69528-.52426c.11607-.087692.23222-.175511.34845-.263407l.69815-.527923c.11648-.088015.23301-.17601.34958-.263939l.89988-.676163c4.20144-3.141603 8.41844-6.036123 12.12944-6.436474 37.13425-4.006135 75.88759-2.98659 76-3 16.75034-1.998271 50.58418 11.168282 71.16281 17.911085-6.3578-20.606538-9.91112-44.910672-10.66281-72.911085 12.27614 9.421023 23.2722 19.938758 32.98818 31.553207.22954-1.059488.4987-2.136146.81064-3.227095 1.11292-3.892197 5.36292-11.850054 12.75-23.873571 24.66667-37.832813 39.5-55.582552 44.5-53.249219 7.36882 3.438782 26.56286 32.82033 37.42777 95.969894 3.53599-1.938476 7.5365-3.660056 12.02341-4.953897 11.2841-3.253874 25.51405-.17714 43.5 0 5.69546.056094 15.17716-8.317662 21.5-7.475637 11.64191 1.550378 27.81338-.454157 44 7.475637 10.03886 4.918022 19.65172 18.683935 29.5 24.280681 3.69355 2.099033 7.83289 6.300156 11.90106 10.603399l.64167.680017.64004.679964c6.1777 6.5671 12.06283 12.881662 15.81723 11.832267 1.6913-.472738 2.4587-6.020083 2.79558-12.350709l.03767-.748135c.04171-.876435.07567-1.764457.10316-2.652968l.02469-.861945c.0597-2.261038.08009-4.501967.08227-6.539406l-.00006-.803689c-.00354-3.035871-.04331-5.535832-.04331-6.838795 0-2.311322-3.69561-2.847449-7.5-5.233435-4.80974-3.01651-10.31234-7.982043-14.5-12.047246-1.35-1.310522-2.36216-2.253599-3.11977-3.003248l-.24322-.242957c-3.12032-3.150282-1.39528-2.861707-2.13701-14.411636-.26341-4.10162 3.14902-13.840301 5.5-23.020173 2.47374-9.659212 3.92488-18.714451 5-20.542389 5-8.501083 15.90293-17.007049 23-19.498916 3.10782-1.091196 8.66199-2.170169 14.46408-3.227972l1.39614-.253461.69953-.126418 1.39775-.25219c6.04587-1.090936 11.88434-2.157038 15.0425-3.188241 33.97621-11.093909 62.72433-22.884261 87.75-24.069051 9.735-.460884 32.61967.513475 68.65402 2.923076l1.09598.073457 21.5-25.8792c6.5469-19.557066 11.85939-36.972138 15.93746-52.245218 15.06254-56.411695 80.2458-194.01202798 127.56254-193.75868965zm-953.76275 499.53465065c.102237 1.309165.205408 2.635355.308455 3.969304l20.635961.000005c-6.065549-1.068172-11.951571-2.167656-17.622226-3.298404z" fill="#06102b"/><path d="m1061.38386 349.81483h73.40671s1.51051-5.347417 0-8.293953c-3.54922-5.67481-8.57109-4.442557-8.57109-4.442557s0-16.074063-12.0756-16.074063-13.05514 9.167-13.05514 9.167-8.30782-3.49219-11.32884 4.5835c-6.7973-2.182619-9.27886-1.527833-11.86831 6.76612-13.05514-8.293953-18.7735 8.293953-16.50773 8.293953z" fill="#fff"/><path d="m1226.53511 321.612186h54.97365s.67144-2.110243-.50357-4.389305c-2.7609-4.389306-6.79827-3.882848-6.79827-3.882848s1.31928-6.921597-7.07364-6.921597c0-11.0858-12.47058-5.8301-11.84181 1.002309-1.47202-1.00231-5.29999-2.987786-7.65001 3.258534-5.23974-1.997166-10.89866-.703293-10.89866 6.543601-10.52207-4.414787-11.9702 4.389306-10.20769 4.389306z" fill="#fff" transform="matrix(-1 0 0 1 2507.599498 0)"/></g><path d="m1097.55995 222h134.97114s1.6485-5.208459-1.23637-10.833596c-6.77854-10.833595-16.69109-9.583565-16.69109-9.583565s4.50265-14.609866-16.10363-14.609866c0-20.317765-31.88127-16.863616-30.33752 0-3.61412-2.473881-13.01254-7.374393-18.7823 8.042647-12.86459-4.929365-26.75834-1.735854-26.75834 16.150784-25.83377-10.896489-29.38921 10.833596-25.06189 10.833596z" fill="#fff"/></g></svg>