<?xml version="1.0" encoding="UTF-8"?>
<svg width="1550px" height="552px" viewBox="0 0 1550 552" version="1.1" xmlns="http://www.w3.org/2000/svg" xmlns:xlink="http://www.w3.org/1999/xlink">
    <title>header</title>
    <defs>
        <path d="M370.555487,0.22871669 C379.331772,-0.998404301 383.998439,2.71232794 384.555487,11.3609134 L412.555487,27.8151531 L439.805487,34.5446066 L468.055487,49.8609134 C482.384072,54.8353038 493.050738,58.1403167 500.055487,59.7759522 C513.107575,62.8236648 516.26609,44.0731358 525.055487,39.1665873 C540.915871,30.3127668 557.760799,31.8460259 561.055487,41.7458101 C561.28626,42.4392295 568.815491,57.29705 585.055487,65.3955265 C597.092963,71.3983125 616.402602,69.5328433 628.029171,77.2287167 C666.23879,102.520476 696.111117,132.051202 696.055487,134.275952 C695.816921,143.816546 776.172341,237.388155 724.055487,243.275952 C704.740398,245.458036 632.240398,219.547587 506.555487,165.544607 L228.555487,231.294607 L133.555487,177.044607 C29.0031625,82.088159 -14.1635041,28.0518657 4.05548678,14.9357269 C15.3354048,6.81513602 59.567375,35.3536543 85.5554868,35.4202403 C105.456668,35.4712306 130.582574,30.4743853 152.555487,31.2287167 C185.508605,32.3599992 224.077688,25.1728716 251.555487,27.8151531 C267.304641,29.3296012 295.522683,40.1824645 312.555487,35.4202403 C339.503554,27.8857947 354.581443,2.46224522 370.555487,0.22871669 Z" id="path-1"></path>
        <path d="M46.25,153.31589 C69.1805737,145.601588 84.5139071,139.428704 92.25,134.797236 C95.6508257,132.761219 97.7757595,125.047236 105.75,118.547236 C113.724241,112.047236 113.932798,120.346891 118,118.547236 C121.839472,116.848347 125.589472,113.015013 129.25,107.047236 C139.11442,87.8056479 145.697754,73.4843162 149,64.0832407 C151.887977,55.861539 153.852877,45.0298373 161.25,27.7785812 C161.957394,26.128827 164.124094,22.9263699 167.750099,18.1712099 L177.5,4.04723555 C181.608178,1.62092314 184.608178,0.287589811 186.5,0.0472355514 C188.391822,-0.193118709 190.558489,0.483794354 193,2.07797474 L199.5,12.0472356 L207.5,9.31588988 L233,42.5472356 L251,67.1321967 L269.5,76.3158899 L306.25,90.3158899 L334.5,105.632197 C348.828585,110.606587 359.495251,113.9116 366.5,115.547236 C379.552089,118.594948 382.710603,99.8444191 391.5,94.9378706 C407.360384,86.0840501 424.205312,87.6173092 427.5,97.5170934 C428.463981,100.413636 562.595395,186.232235 562.5,190.047236 C562.261435,199.587829 642.616854,293.159438 590.5,299.047236 C571.184911,301.229319 498.684911,275.318871 373,221.31589 L95,287.06589 L0,232.81589 L46.25,153.31589 Z" id="path-3"></path>
        <path d="M11.1991653,52.375 C15.1991653,51.875 19.1991653,10.375 35.1991653,18.375 C51.1991653,26.375 0,12.875 0,12.375 C0,11.875 63.1991653,15.375 71.4491653,16.375 C74.6018065,16.7571383 90.2831723,19.3071289 100.5,18.375 C105.571422,17.9123105 112.137811,15.9123105 120.199165,12.375 C132.199165,1.375 140.449165,-2.29166667 144.949165,1.375 C151.699165,6.875 162.949165,10.375 172.699165,18.375 C179.199165,23.7083333 190.393704,23.0416667 206.282781,16.375 L235.156524,1.375 C252.219298,7.5 262.492098,13.1666667 265.974925,18.375 C266.291349,18.8481911 292.582324,29.6332774 307,31.5 C323.481045,33.6338764 356.062676,16.6411092 378.5,18.5 C431.475135,22.888892 477.364624,45.5161017 477.002158,48.5 C475.42777,61.4002367 259.401962,61.1947361 258.282781,64.375 C256.699165,68.875 78.1991653,105.125 71.4491653,105.125 C64.6991653,105.125 7.19916534,52.875 11.1991653,52.375 Z" id="path-5"></path>
        <rect id="path-7" x="1099.3689" y="17.1093649" width="175" height="17.5" rx="6.5"></rect>
        <filter x="-53.4%" y="-528.6%" width="206.9%" height="1168.6%" filterUnits="objectBoundingBox" id="filter-8">
            <feOffset dx="0" dy="1" in="SourceAlpha" result="shadowOffsetOuter1"></feOffset>
            <feGaussianBlur stdDeviation="31" in="shadowOffsetOuter1" result="shadowBlurOuter1"></feGaussianBlur>
            <feColorMatrix values="0 0 0 0 0.033654107   0 0 0 0 0.0992590111   0 0 0 0 0.126594388  0 0 0 1 0" type="matrix" in="shadowBlurOuter1"></feColorMatrix>
        </filter>
    </defs>
    <g id="header" stroke="none" stroke-width="1" fill="none" fill-rule="evenodd">
        <rect fill="#04141B" x="0" y="0" width="1550" height="552"></rect>
        <polygon id="Rectangle" fill="#202778" points="0.304189788 -42.7734375 1593 -42.7734375 1593 391.877389 0 392"></polygon>
        <g id="Group-4" transform="translate(-333.399749, -43.004257)">
            <path d="M1015.49635,230.504257 L1095.63203,230.504257 C1098.25063,230.504257 1100.37343,232.627057 1100.37343,235.245663 C1100.37343,237.86427 1098.25063,239.98707 1095.63203,239.98707 L1067.63027,239.98707 C1064.93047,239.98707 1062.74185,242.175687 1062.74185,244.875484 C1062.74185,247.575281 1064.93047,249.763898 1067.63027,249.763898 L1124.36044,249.763898 C1127.73946,249.763898 1130.4787,252.503135 1130.4787,255.882155 C1130.4787,259.261175 1127.73946,262.000411 1124.36044,262.000411 L1055.36552,262.000411 C1053.01541,262.000411 1051.11027,263.905548 1051.11027,266.255654 C1051.11027,268.60576 1053.01541,270.510898 1055.36552,270.510898 L1147.33569,270.510898 C1153.14099,270.510898 1157.84712,275.217024 1157.84712,281.022325 C1157.84712,286.827626 1153.14099,291.533753 1147.33569,291.533753 L1059.8179,291.533753 C1055.00881,291.533753 1051.11027,295.432288 1051.11027,300.241376 C1051.11027,305.050463 1055.00881,308.948999 1059.8179,308.948999 L1190.65609,308.948999 C1195.20894,308.948999 1198.89975,312.639809 1198.89975,317.192653 C1198.89975,321.745498 1195.20894,325.436307 1190.65609,325.436307 L895.143403,325.436307 C890.590558,325.436307 886.899749,321.745498 886.899749,317.192653 C886.899749,312.639809 890.590558,308.948999 895.143403,308.948999 L1001.08438,308.948999 C1005.6623,308.948999 1009.37343,305.237865 1009.37343,300.659949 C1009.37343,296.082032 1005.6623,292.370898 1001.08438,292.370898 L906.079422,292.370898 C901.532845,292.370898 897.847117,288.68517 897.847117,284.138593 C897.847117,279.592017 901.532845,275.906288 906.079422,275.906288 L990.150101,275.906288 C993.965031,275.906288 997.057643,272.813676 997.057643,268.998746 C997.057643,265.183816 993.965031,262.091204 990.150101,262.091204 L956.01077,262.091204 C952.606678,262.091204 949.847117,259.331643 949.847117,255.927551 C949.847117,252.52346 952.606678,249.763898 956.01077,249.763898 L1033.91916,249.763898 C1035.85597,249.763898 1037.42606,248.193803 1037.42606,246.256992 C1037.42606,244.320182 1035.85597,242.750086 1033.91916,242.750086 L1015.49635,242.750086 C1012.11476,242.750086 1009.37343,240.008764 1009.37343,236.627172 C1009.37343,233.245579 1012.11476,230.504257 1015.49635,230.504257 Z" id="Path-28-Copy" fill="#19206F"></path>
            <path d="M1580.63624,119.004257 L1767.10208,119.004257 C1773.19627,119.004257 1778.13659,123.944575 1778.13659,130.038767 C1778.13659,136.132958 1773.19627,141.073276 1767.10208,141.073276 L1701.94744,141.073276 C1695.66429,141.073276 1690.5708,146.16677 1690.5708,152.449913 C1690.5708,158.733055 1695.66429,163.826549 1701.94744,163.826549 L1833.95042,163.826549 C1841.81429,163.826549 1848.18922,170.201479 1848.18922,178.065354 C1848.18922,185.929229 1841.81429,192.304159 1833.95042,192.304159 L1673.40809,192.304159 C1667.93877,192.304159 1663.50501,196.737918 1663.50501,202.207238 C1663.50501,207.676557 1667.93877,212.110317 1673.40809,212.110317 L1887.41055,212.110317 C1900.92103,212.110317 1911.87343,223.062721 1911.87343,236.573195 C1911.87343,250.08367 1900.92103,261.036074 1887.41055,261.036074 L1683.76996,261.036074 C1672.57794,261.036074 1663.50501,270.109 1663.50501,281.301022 C1663.50501,292.493044 1672.57794,301.56597 1683.76996,301.56597 L1988.21458,301.56597 C1998.81026,301.56597 2007.39975,310.155463 2007.39975,320.751139 C2007.39975,331.346815 1998.81026,339.936307 1988.21458,339.936307 L1306.9849,339.936307 C1292.85461,339.936307 1281.39975,328.481446 1281.39975,314.35116 C1281.39975,300.220873 1292.85461,288.766012 1306.9849,288.766012 L1545.35032,288.766012 C1556.96833,288.766012 1566.38659,279.347754 1566.38659,267.729745 C1566.38659,256.111735 1556.96833,246.693478 1545.35032,246.693478 L1317.88676,246.693478 C1311.80427,246.693478 1306.87343,241.762643 1306.87343,235.68015 C1306.87343,229.597657 1311.80427,224.666822 1317.88676,224.666822 L1521.65301,224.666822 C1530.53137,224.666822 1537.7287,217.469494 1537.7287,208.59114 C1537.7287,199.712786 1530.53137,192.515458 1521.65301,192.515458 L1442.21789,192.515458 C1434.29566,192.515458 1427.87343,186.093227 1427.87343,178.171003 C1427.87343,170.24878 1434.29566,163.826549 1442.21789,163.826549 L1623.50141,163.826549 C1628.00888,163.826549 1631.66291,160.172521 1631.66291,155.665049 C1631.66291,151.157577 1628.00888,147.503549 1623.50141,147.503549 L1580.63624,147.503549 C1572.76637,147.503549 1566.38659,141.123765 1566.38659,133.253903 C1566.38659,125.384041 1572.76637,119.004257 1580.63624,119.004257 Z" id="Path-28-Copy-3" fill="#19206F"></path>
            <path d="M519.636237,76.0042568 L706.102081,76.0042568 C712.196272,76.0042568 717.136591,80.9445751 717.136591,87.0387665 C717.136591,93.132958 712.196272,98.0732762 706.102081,98.0732762 L640.947438,98.0732762 C634.664295,98.0732762 629.570801,103.16677 629.570801,109.449913 C629.570801,115.733055 634.664295,120.826549 640.947438,120.826549 L772.950417,120.826549 C780.814292,120.826549 787.189222,127.201479 787.189222,135.065354 C787.189222,142.929229 780.814292,149.304159 772.950417,149.304159 L612.408091,149.304159 C606.938771,149.304159 602.505012,153.737918 602.505012,159.207238 C602.505012,164.676557 606.938771,169.110317 612.408091,169.110317 L834.410554,169.110317 C843.502751,169.110317 850.873433,176.480999 850.873433,185.573195 C850.873433,194.665392 843.502751,202.036074 834.410554,202.036074 L622.76996,202.036074 C611.577938,202.036074 602.505012,211.109 602.505012,222.301022 C602.505012,233.493044 611.577938,242.56597 622.76996,242.56597 L831.688264,242.56597 C842.28394,242.56597 850.873433,251.155463 850.873433,261.751139 C850.873433,272.346815 842.28394,280.936307 831.688264,280.936307 L237.984896,280.936307 C228.272887,280.936307 220.399749,273.063168 220.399749,263.35116 C220.399749,253.639151 228.272887,245.766012 237.984896,245.766012 L484.350324,245.766012 C495.968333,245.766012 505.386591,236.347754 505.386591,224.729745 C505.386591,213.111735 495.968333,203.693478 484.350324,203.693478 L256.886761,203.693478 C250.804268,203.693478 245.873433,198.762643 245.873433,192.68015 C245.873433,186.597657 250.804268,181.666822 256.886761,181.666822 L460.653014,181.666822 C469.531368,181.666822 476.728696,174.469494 476.728696,165.59114 C476.728696,156.712786 469.531368,149.515458 460.653014,149.515458 L381.217887,149.515458 C373.295664,149.515458 366.873433,143.093227 366.873433,135.171003 C366.873433,127.24878 373.295664,120.826549 381.217887,120.826549 L562.501406,120.826549 C567.008878,120.826549 570.662906,117.172521 570.662906,112.665049 C570.662906,108.157577 567.008878,104.503549 562.501406,104.503549 L519.636237,104.503549 C511.766374,104.503549 505.386591,98.1237651 505.386591,90.2539029 C505.386591,82.3840407 511.766374,76.0042568 519.636237,76.0042568 Z" id="Path-28-Copy-4" fill="#19206F"></path>
            <g id="Path-27" transform="translate(222.844262, 227.775540)">
                <mask id="mask-2" fill="white">
                    <use xlink:href="#path-1"></use>
                </mask>
                <use id="Path-21" fill="#2B349B" xlink:href="#path-1"></use>
                <path d="M373.555487,-0.729978334 C369.88882,-6.46232782 369.88882,-3.13789328 373.555487,9.24332529 C379.055487,27.8151531 378.055487,32.4742143 378.555487,40.6014655 C379.055487,48.7287167 391.555487,61.7453429 394.555487,67.5891927 C396.555487,71.4850925 379.88882,88.8548865 344.555487,119.698575 C338.555487,96.6985745 332.722153,83.3652412 327.055487,79.6985745 C318.555487,74.1985745 310.055487,69.6676015 310.055487,54.8900982 C310.055487,45.0384293 312.88882,35.4645407 318.555487,26.1684324 L373.555487,-0.729978334 Z" id="Path-11" fill="#0E0E50" mask="url(#mask-2)"></path>
                <path d="M545.555487,30.3431281 C552.375151,35.1745603 555.041818,47.5899151 553.555487,67.5891927 C552.069156,87.5884702 555.235822,107.801645 563.055487,128.228717 L545.555487,161.137084 L497.555487,145.472399 L473.555487,135.228717 C465.88882,140.0472 462.055487,134.380533 462.055487,118.228717 C462.055487,106.808259 477.056962,94.0178968 491.055487,78.7496612 C494.921768,74.5326961 499.255101,67.6923813 504.055487,58.2287167 L534.555487,18.2287167 L545.555487,30.3431281 Z" id="Path-13" fill="#0E0E50" mask="url(#mask-2)"></path>
            </g>
            <g id="Path-23" transform="translate(1095.399749, 201.957021)">
                <mask id="mask-4" fill="white">
                    <use xlink:href="#path-3"></use>
                </mask>
                <use id="Path-21" fill="#2B349B" xlink:href="#path-3"></use>
                <path d="M178,1.41619709 L171.5,35.1661971 L184.5,58.3765146 L201.25,80.3214043 C206.121283,83.6039234 209.704616,88.5125338 212,95.0472356 C214.295384,101.581937 216.045384,111.856733 217.25,125.871621 L260.75,165.428637 C282.639077,136.829483 295.47241,121.760954 299.25,120.223051 C301.112268,119.464899 308.537737,98.1892935 308.500143,80.5472356 C308.422914,44.5092098 297.966993,-1.7305732 290.75,-4.58380291 C287.422673,-5.89925765 258.83934,-3.1889115 205,3.54723555 L212,39.0472356 C207,28.0472356 203.416667,19.4092434 201.25,13.1332592 C196.67571,9.36966428 196.786985,-1.24338126 195.75,-4.58380291 C192.083333,-16.3951776 186.166667,-14.3951776 178,1.41619709 Z" id="Path-22" fill="#0E0E50" mask="url(#mask-4)"></path>
                <path d="M77.5,270.047236 L141.361995,119.832737 L145,107.297236 C145.833333,103.009148 148,100.865104 151.5,100.865104 C154.724237,100.865104 158.926012,86.3832515 167.100586,63.007553 C167.566689,61.674702 168.783161,60.5212628 170.75,59.5472356 L175.25,73.7972356 L170.75,82.0285812 L175.25,89.1135424 L164,106.613542 L160.625,122.797236 C164.55168,131.087459 166.710209,135.587459 167.100586,136.297236 C168.933919,139.630569 179.650391,142.130569 199.25,143.797236 L184.25,170.309675 C203.252535,203.47049 203.835869,228.383011 186,245.047236 C168.164131,261.711461 131.997465,270.044794 77.5,270.047236 Z" id="Path-4" fill="#0E0E50" mask="url(#mask-4)"></path>
                <path d="M397.5,90.0885405 C417.166667,118.727671 427,135.713902 427,141.047236 C427,149.047236 403.5,186.472618 403.5,193.509927 C403.5,200.547236 499,184.168381 499,171.857808 C499,159.547236 509,35.1115645 499,33.7821645 C489,32.4527644 427,49.6169815 427,58.8321085 C427,64.9755265 417.166667,75.3943372 397.5,90.0885405 Z" id="Path-10" fill="#0E0E50" mask="url(#mask-4)"></path>
                <path d="M326.5,190.788132 C338.5,173.627535 344.5,161.380569 344.5,154.047236 C344.5,143.047236 354,137.047236 354,126.047236 C354,115.047236 359.5,107.168051 363,110.049284 C366.5,112.930518 366.5,113.160936 366.5,121.354086 C366.5,129.547236 381,150.547236 381,162.547236 C381,174.547236 363,189.162647 363,204.263095 C363,214.33006 350.833333,209.838406 326.5,190.788132 Z" id="Path-12" fill="#0E0E50" mask="url(#mask-4)"></path>
            </g>
            <g id="Group" transform="translate(714.030845, 296.894892)">
                <path d="M182.868904,8.23469363 C185.625772,7.90216545 175.71283,31.4605805 182.868904,30.9337507 C188.224069,30.5395038 192.530124,17.6743659 202.868904,12.1093649 C207.208541,9.77349149 216.381091,31.5472982 228.868904,38.1093649 C242.733731,45.3950214 259.849262,37.7807232 261.118904,39.8593649 C271.189316,56.3465222 294.802748,68.9209146 294.802748,68.218662 C294.802748,66.9287752 321.224125,81.0314918 338.368904,80.6772335 C353.613425,80.3622398 359.434101,65.2057461 364.726777,69.7187964 C375.971869,79.3074569 388.439084,83.3614081 388.439084,85.1005677 C388.439084,85.5059723 395.901635,93.3762428 404.391284,93.4069348 C432.321684,93.5079095 488.731531,85.6457456 473.866468,97.9218901 C454.483059,113.929459 456.551609,142.250541 414.614095,143.481893 C372.676582,144.713244 326.493463,136.914685 306.661209,136.093784 C286.828955,135.272883 269.859089,121.728018 269.041264,121.728018 C268.223439,121.728018 247.368904,134.862433 247.368904,128.295225 C247.368904,126.102312 176.581311,171.803896 165.868904,154.109365 C157.692048,140.603004 28.5471234,157.456227 12.368904,138.03 C-14.631096,105.609365 10.7457789,51.5320736 12.368904,43.1093649 C14.7170571,30.9243455 72.0550364,36.8818666 115.868904,31.1093649 C155.150996,25.9339273 181.420433,8.4094055 182.868904,8.23469363 Z" id="Path-6" fill="#2B349B"></path>
                <g id="Path-8" transform="translate(155.368904, 89.609365)">
                    <mask id="mask-6" fill="white">
                        <use xlink:href="#path-5"></use>
                    </mask>
                    <use id="Path-5" fill="#0E0E50" xlink:href="#path-5"></use>
                    <path d="M85.0113587,33.1137477 C89.2613587,33.6137477 88.7613587,42.2974408 105.261359,33.1137477 C121.761359,23.9300545 123.761359,25.0571831 129.011359,28.6137477 C134.261359,32.1703122 136.261359,36.3637477 147.761359,37.3637477 C159.261359,38.3637477 152.261359,41.8637477 169.011359,40.1137477 C185.761359,38.3637477 197.830319,34.6137477 208.011359,37.3637477 C218.192398,40.1137477 244.011359,44.8637477 245.261359,45.6137477 C246.511359,46.3637477 260.011359,44.7391996 249.511359,50.6137477 C239.011359,56.4882957 160.511359,69.1137477 144.761359,70.6137477 C129.011359,72.1137477 74.7613587,60.5559337 72.7613587,58.5221147 C70.7613587,56.4882957 80.7613587,32.6137477 85.0113587,33.1137477 Z" id="Path-9" fill="#022140" mask="url(#mask-6)"></path>
                </g>
                <path d="M205.140463,173.668058 C207.417634,173.561733 186.327115,159.208836 141.868904,130.609365 C229.81444,134.731827 296.042134,136.631495 340.551984,136.308368 C365.977487,136.123787 386.652855,135.557899 402.525208,135.630438 C418.034709,135.701318 430.02631,136.741165 443.785854,136.793058 C456.857139,136.842356 471.781711,135.904627 483.273728,135.936789 C501.172834,135.986883 560.632617,136.03569 574.286672,136.043058 C621.143327,135.087263 628.508169,133.700046 596.381199,131.881408 C577.296113,130.927515 586.666738,130.5035 624.493075,130.609365 C662.319411,130.715229 718.985626,131.324061 794.491719,132.43586 C846.981119,132.048992 877.887833,134.459725 887.211863,139.668058 C901.197907,147.480558 870.858451,181.168058 866.618885,185.668058 C862.379319,190.168058 384.509112,226.418058 366.43839,226.418058 C348.367668,226.418058 194.431887,174.168058 205.140463,173.668058 Z" id="Path-5-Copy" fill="#1796C0" transform="translate(516.368904, 178.505780) scale(-1, 1) translate(-516.368904, -178.505780) "></path>
                <path d="M347.93583,143.609365 C384.069681,148.109365 374.701646,143.609365 448.976785,143.609365 C523.251924,143.609365 543.995431,139.609365 575.445265,144.609365 C606.895098,149.609365 688.530837,148.109365 717.304089,148.109365 C746.077341,148.109365 854.478895,165.609365 869.869239,165.609365 C885.259583,165.609365 944.813524,178.609365 869.869239,185.359365 C794.924955,192.109365 620.947152,198.859365 575.445265,192.109365 C545.110673,187.609365 469.274195,174.859365 347.93583,153.859365 C323.846595,144.026032 323.846595,140.609365 347.93583,143.609365 Z" id="Path-20" fill="#066687"></path>
                <g id="Rectangle-Copy-11">
                    <use fill="black" fill-opacity="1" filter="url(#filter-8)" xlink:href="#path-7"></use>
                    <use fill="#103849" fill-rule="evenodd" xlink:href="#path-7"></use>
                </g>
                <path d="M250.870763,96.6093649 C245.485747,114.782989 231.029496,132.149853 229.526239,134.609365 C227.526239,137.88161 207.807128,136.464943 170.368904,130.359365 C159.368904,102.017738 153.868904,87.059405 153.868904,85.4843649 C153.868904,83.1218048 172.868904,58.6093649 172.868904,53.6093649 C172.868904,48.6093649 174.868904,-32.3906351 167.868904,14.6093649 C160.868904,61.6093649 210.868904,28.4734655 214.868904,28.5414152 C218.868904,28.6093649 215.118904,36.1093649 219.868904,37.1093649 C224.618904,38.1093649 220.0327,57.7346936 222.868904,57.7346936 C223.696712,57.7346936 231.659593,80.9993351 240.725659,91.1093649 C248.792196,100.10477 251.677584,93.8864626 250.870763,96.6093649 Z" id="Path-7" fill="#0E0E50"></path>
            </g>
            <path d="M1931.89975,0.000349346404 C1995.10238,0.346566583 2055.01905,91.5990339 2111.64975,273.757751 C2157.62798,386.970886 2170.87798,458.386388 2151.39975,488.004257 C2121.27547,533.810098 2047.6793,626.618134 1913.39975,637.004257 C1816.4838,644.500417 1658.46573,644.836282 1644.39975,652.004257 C1634.41455,657.092678 1612.36743,660.008363 1584.40576,660.093554 L1584.39975,717.504257 L874.899749,717.504257 L874.900706,670.753111 C805.492714,679.223397 721.678854,685.434383 691.399749,670.004257 C656.871999,652.409036 78.9349622,587.050555 9.39974854,507.529137 C-21.9880099,471.633668 37.6880595,359.793925 9.39974854,309.004257 C6.56412817,303.9131 19.8974615,292.203376 49.3997485,273.875084 C88.4560107,128.978403 148.289344,56.3547936 228.899749,56.0042568 C260.268843,55.8678474 305.814569,13.9173234 333.399749,43.0042568 C345.322848,55.5764568 352.578338,86.1279067 359.908905,117.444716 L360.36248,119.382664 C360.438105,119.705768 360.513749,120.028915 360.589417,120.352087 L361.447316,124.010682 L361.664719,124.93522 L361.664719,124.93522 L362.10034,126.783142 C362.173043,127.090968 362.245799,127.398703 362.318612,127.70633 L362.756217,129.550668 C368.820261,155.0425 375.34151,179.566455 384.899749,193.759039 C395.794113,209.935574 408.365355,211.832803 429.899749,237.018865 C431.478503,238.865335 433.875843,242.995344 437.091767,249.408892 L437.498021,250.222479 C440.303224,255.863261 443.705666,263.170115 447.705349,272.14304 L507.399749,271.883457 C527.733082,271.883457 542.208124,270.423724 550.824874,267.504257 C566.43756,262.214476 583.609021,272.604193 592.899749,273.875084 C605.868704,275.649125 621.42744,298.17819 631.399749,300.004257 C677.410716,308.429497 689.529935,343.628735 696.399749,343.162693 C706.963684,342.446047 714.889334,325.862762 720.399749,307.481596 C727.140387,284.996753 820.975907,321.234664 830.399749,319.503173 C832.323077,319.14979 835.969013,310.2797 841.399749,309.822475 C844.356293,309.573558 847.647833,310.250545 850.824302,310.867209 L851.418431,310.981886 C857.047763,312.060026 862.222741,312.751198 864.399749,307.481596 C867.298287,300.465477 882.652575,296.080458 885.899749,296.206821 C892.777809,296.474481 898.353178,303.468465 902.625855,317.188774 C913.273641,320.411389 921.11465,326.532991 926.149749,335.55421 C921.06411,338.308931 914.646369,339.896193 906.896527,340.315994 L906.621971,339.878805 C908.702847,343.195279 910.513095,345.981761 912.151787,348.364046 C914.351997,347.505107 916.76835,346.718624 919.399749,346.004257 C921.344492,347.987895 922.399702,350.062301 922.56538,352.227477 C932.90441,339.349205 944.766377,327.774997 958.149749,317.504257 C957.379301,346.203429 953.665639,371.019537 947.008762,391.95258 C947.202572,392.453451 947.407796,392.971432 947.621971,393.504257 L947.633183,393.532183 C959.444231,385.481046 972.283086,381.138404 986.149749,380.504257 C986.209897,383.872553 985.540154,387.444351 984.14052,391.219649 C1008.76955,390.788978 1034.78918,392.91538 1062.39975,396.504257 C1067.3244,397.144373 1072.43431,400.344444 1077.5982,403.626416 L1078.74657,404.356085 C1084.30079,407.879595 1089.90607,411.285828 1095.39975,411.504257 C1098.92003,411.644223 1103.26749,408.589287 1107.77897,405.196423 L1108.47425,404.672163 C1108.59032,404.584471 1108.70647,404.496652 1108.8227,404.408756 L1109.52085,403.880833 C1109.63733,403.792818 1109.75386,403.704823 1109.87043,403.616894 L1110.77031,402.940731 C1114.97175,399.799128 1119.18875,396.904608 1122.89975,396.504257 C1160.034,392.498122 1198.78734,393.517667 1198.89975,393.504257 C1215.65009,391.505986 1249.48393,404.672539 1270.06256,411.415342 C1263.70476,390.808804 1260.15144,366.50467 1259.39975,338.504257 C1271.67589,347.92528 1282.67195,358.443015 1292.38793,370.057464 C1292.61747,368.997976 1292.88663,367.921318 1293.19857,366.830369 C1294.31149,362.938172 1298.56149,354.980315 1305.94857,342.956798 C1330.61524,305.123985 1345.44857,287.374246 1350.44857,289.707579 C1357.81739,293.146361 1377.01143,322.527909 1387.87634,385.677473 C1391.41233,383.738997 1395.41284,382.017417 1399.89975,380.723576 C1411.18385,377.469702 1425.4138,380.546436 1443.39975,380.723576 C1449.09521,380.77967 1458.57691,372.405914 1464.89975,373.247939 C1476.54166,374.798317 1492.71313,372.793782 1508.89975,380.723576 C1518.93861,385.641598 1528.55147,399.407511 1538.39975,405.004257 C1542.0933,407.10329 1546.23264,411.304413 1550.30081,415.607656 L1550.94248,416.287673 L1551.58252,416.967637 C1557.76022,423.534737 1563.64535,429.849299 1567.39975,428.799904 C1569.09105,428.327166 1569.85845,422.779821 1570.19533,416.449195 L1570.233,415.70106 C1570.27471,414.824625 1570.30867,413.936603 1570.33616,413.048092 L1570.36085,412.186147 C1570.42055,409.925109 1570.44094,407.68418 1570.44312,405.646741 L1570.44306,404.843052 C1570.43952,401.807181 1570.39975,399.30722 1570.39975,398.004257 C1570.39975,395.692935 1566.70414,395.156808 1562.89975,392.770822 C1558.09001,389.754312 1552.58741,384.788779 1548.39975,380.723576 C1547.04975,379.413054 1546.03759,378.469977 1545.27998,377.720328 L1545.03676,377.477371 C1541.91644,374.327089 1543.64148,374.615664 1542.89975,363.065735 C1542.63634,358.964115 1546.04877,349.225434 1548.39975,340.045562 C1550.87349,330.38635 1552.32463,321.331111 1553.39975,319.503173 C1558.39975,311.00209 1569.30268,302.496124 1576.39975,300.004257 C1579.50757,298.913061 1585.06174,297.834088 1590.86383,296.776285 L1592.25997,296.522824 L1592.9595,296.396406 L1592.9595,296.396406 L1594.35725,296.144216 C1600.40312,295.05328 1606.24159,293.987178 1609.39975,292.955975 C1643.37596,281.862066 1672.12408,270.071714 1697.14975,268.886924 C1706.88475,268.42604 1729.76942,269.400399 1765.80377,271.81 L1766.89975,271.883457 L1788.39975,246.004257 C1794.94665,226.447191 1800.25914,209.032119 1804.33721,193.759039 C1819.39975,137.347344 1884.58301,-0.252988984 1931.89975,0.000349346404 Z M978.137,499.535 C978.239237,500.844165 978.342408,502.170355 978.445455,503.504304 L999.081416,503.504309 C993.015867,502.436137 987.129845,501.336653 981.45919,500.205905 L978.137,499.535 Z" id="Combined-Shape" fill="#06102B"></path>
            <path d="M1061.38386,349.81483 L1134.79057,349.81483 C1134.79057,349.81483 1136.30108,344.467413 1134.79057,341.520877 C1131.24135,335.846067 1126.21948,337.07832 1126.21948,337.07832 C1126.21948,337.07832 1126.21948,321.004257 1114.14388,321.004257 C1102.06828,321.004257 1101.08874,330.171257 1101.08874,330.171257 C1101.08874,330.171257 1092.78092,326.679067 1089.7599,334.754757 C1082.9626,332.572138 1080.48104,333.226924 1077.89159,341.520877 C1064.83645,333.226924 1059.11809,349.81483 1061.38386,349.81483 Z" id="Path-35" fill="#FFFFFF"></path>
            <path d="M1226.53511,321.612186 L1281.50876,321.612186 C1281.50876,321.612186 1282.1802,319.501943 1281.00519,317.222881 C1278.24429,312.833575 1274.20692,313.340033 1274.20692,313.340033 C1274.20692,313.340033 1275.5262,306.418436 1267.13328,306.418436 C1267.13328,295.332636 1254.6627,300.588336 1255.29147,307.420745 C1253.81945,306.418435 1249.99148,304.432959 1247.64146,310.679279 C1242.40172,308.682113 1236.7428,309.975986 1236.7428,317.22288 C1226.22073,312.808093 1224.7726,321.612186 1226.53511,321.612186 Z" id="Path-35-Copy" fill="#FFFFFF" transform="translate(1253.799749, 310.808222) scale(-1, 1) translate(-1253.799749, -310.808222) "></path>
        </g>
        <path d="M1097.55995,222 L1232.53109,222 C1232.53109,222 1234.17959,216.791541 1231.29472,211.166404 C1224.51618,200.332809 1214.60363,201.582839 1214.60363,201.582839 C1214.60363,201.582839 1219.10628,186.972973 1198.5,186.972973 C1198.5,166.655208 1166.61873,170.109357 1168.16248,186.972973 C1164.54836,184.499092 1155.14994,179.59858 1149.38018,195.01562 C1136.51559,190.086255 1122.62184,193.279766 1122.62184,211.166404 C1096.78807,200.269915 1093.23263,222 1097.55995,222 Z" id="Path-35-Copy" fill="#FFFFFF"></path>
    </g>
</svg>